<mxfile host="app.diagrams.net" modified="2022-08-19T18:57:55.317Z" agent="5.0 (Windows NT 10.0; Win64; x64) AppleWebKit/537.36 (KHTML, like Gecko) Chrome/104.0.0.0 Safari/537.36" etag="fA4LOxcDQrOJ9Q4bAedC" version="20.2.5" type="github">
  <diagram id="kgpKYQtTHZ0yAKxKKP6v" name="Page-1">
    <mxGraphModel dx="1303" dy="780" grid="0" gridSize="10" guides="1" tooltips="1" connect="1" arrows="1" fold="1" page="1" pageScale="1" pageWidth="850" pageHeight="1100" math="0" shadow="0">
      <root>
        <mxCell id="0" />
        <mxCell id="1" parent="0" />
        <mxCell id="3nuBFxr9cyL0pnOWT2aG-1" value=":Object" style="shape=umlLifeline;perimeter=lifelinePerimeter;container=1;collapsible=0;recursiveResize=0;rounded=0;shadow=0;strokeWidth=1;" parent="1" vertex="1">
          <mxGeometry x="120" y="80" width="100" height="300" as="geometry" />
        </mxCell>
        <mxCell id="3nuBFxr9cyL0pnOWT2aG-2" value="" style="points=[];perimeter=orthogonalPerimeter;rounded=0;shadow=0;strokeWidth=1;" parent="3nuBFxr9cyL0pnOWT2aG-1" vertex="1">
          <mxGeometry x="45" y="70" width="10" height="190" as="geometry" />
        </mxCell>
        <mxCell id="3nuBFxr9cyL0pnOWT2aG-4" value="" style="points=[];perimeter=orthogonalPerimeter;rounded=0;shadow=0;strokeWidth=1;" parent="3nuBFxr9cyL0pnOWT2aG-1" vertex="1">
          <mxGeometry x="50" y="120" width="10" height="80" as="geometry" />
        </mxCell>
        <mxCell id="3nuBFxr9cyL0pnOWT2aG-5" value=":Object" style="shape=umlLifeline;perimeter=lifelinePerimeter;container=1;collapsible=0;recursiveResize=0;rounded=0;shadow=0;strokeWidth=1;" parent="1" vertex="1">
          <mxGeometry x="300" y="80" width="100" height="300" as="geometry" />
        </mxCell>
        <mxCell id="3nuBFxr9cyL0pnOWT2aG-6" value="" style="points=[];perimeter=orthogonalPerimeter;rounded=0;shadow=0;strokeWidth=1;" parent="3nuBFxr9cyL0pnOWT2aG-5" vertex="1">
          <mxGeometry x="45" y="80" width="10" height="160" as="geometry" />
        </mxCell>
        <mxCell id="3nuBFxr9cyL0pnOWT2aG-7" value="return" style="verticalAlign=bottom;endArrow=open;dashed=1;endSize=8;exitX=0;exitY=0.95;shadow=0;strokeWidth=1;" parent="1" source="3nuBFxr9cyL0pnOWT2aG-6" target="3nuBFxr9cyL0pnOWT2aG-2" edge="1">
          <mxGeometry relative="1" as="geometry">
            <mxPoint x="275" y="236" as="targetPoint" />
          </mxGeometry>
        </mxCell>
        <mxCell id="3nuBFxr9cyL0pnOWT2aG-8" value="dispatch" style="verticalAlign=bottom;endArrow=block;entryX=0;entryY=0;shadow=0;strokeWidth=1;" parent="1" source="3nuBFxr9cyL0pnOWT2aG-2" target="3nuBFxr9cyL0pnOWT2aG-6" edge="1">
          <mxGeometry relative="1" as="geometry">
            <mxPoint x="275" y="160" as="sourcePoint" />
          </mxGeometry>
        </mxCell>
        <mxCell id="3nuBFxr9cyL0pnOWT2aG-9" value="callback" style="verticalAlign=bottom;endArrow=block;entryX=1;entryY=0;shadow=0;strokeWidth=1;" parent="1" source="3nuBFxr9cyL0pnOWT2aG-6" target="3nuBFxr9cyL0pnOWT2aG-4" edge="1">
          <mxGeometry relative="1" as="geometry">
            <mxPoint x="240" y="200" as="sourcePoint" />
          </mxGeometry>
        </mxCell>
        <mxCell id="3nuBFxr9cyL0pnOWT2aG-10" value="return" style="verticalAlign=bottom;endArrow=open;dashed=1;endSize=8;exitX=1;exitY=0.95;shadow=0;strokeWidth=1;" parent="1" source="3nuBFxr9cyL0pnOWT2aG-4" target="3nuBFxr9cyL0pnOWT2aG-6" edge="1">
          <mxGeometry relative="1" as="geometry">
            <mxPoint x="240" y="257" as="targetPoint" />
          </mxGeometry>
        </mxCell>
        <mxCell id="zPYcrnnvS7F1HaFsboUR-4" value="" style="points=[];perimeter=orthogonalPerimeter;rounded=0;shadow=0;strokeWidth=1;" parent="1" vertex="1">
          <mxGeometry x="380" y="655" width="10" height="80" as="geometry" />
        </mxCell>
        <mxCell id="zPYcrnnvS7F1HaFsboUR-9" value="" style="endArrow=none;dashed=1;html=1;rounded=0;entryX=0.6;entryY=1.014;entryDx=0;entryDy=0;entryPerimeter=0;startArrow=none;" parent="1" target="zPYcrnnvS7F1HaFsboUR-4" edge="1">
          <mxGeometry width="50" height="50" relative="1" as="geometry">
            <mxPoint x="386" y="1280" as="sourcePoint" />
            <mxPoint x="430" y="650" as="targetPoint" />
          </mxGeometry>
        </mxCell>
        <mxCell id="zPYcrnnvS7F1HaFsboUR-10" value="" style="endArrow=none;dashed=1;html=1;rounded=0;exitX=0.533;exitY=-0.117;exitDx=0;exitDy=0;exitPerimeter=0;" parent="1" source="zPYcrnnvS7F1HaFsboUR-4" edge="1">
          <mxGeometry width="50" height="50" relative="1" as="geometry">
            <mxPoint x="190" y="660" as="sourcePoint" />
            <mxPoint x="385" y="590" as="targetPoint" />
            <Array as="points" />
          </mxGeometry>
        </mxCell>
        <mxCell id="zPYcrnnvS7F1HaFsboUR-11" value="User" style="shape=umlActor;verticalLabelPosition=bottom;verticalAlign=top;html=1;outlineConnect=0;" parent="1" vertex="1">
          <mxGeometry x="370" y="520" width="30" height="50" as="geometry" />
        </mxCell>
        <mxCell id="zPYcrnnvS7F1HaFsboUR-16" value="OTPA UI Client" style="shape=umlLifeline;perimeter=lifelinePerimeter;container=1;collapsible=0;recursiveResize=0;rounded=0;shadow=0;strokeWidth=1;" parent="1" vertex="1">
          <mxGeometry x="520" y="520" width="130" height="760" as="geometry" />
        </mxCell>
        <mxCell id="zPYcrnnvS7F1HaFsboUR-34" value="" style="points=[];perimeter=orthogonalPerimeter;rounded=0;shadow=0;strokeWidth=1;" parent="zPYcrnnvS7F1HaFsboUR-16" vertex="1">
          <mxGeometry x="60" y="180" width="10" height="190" as="geometry" />
        </mxCell>
        <mxCell id="zPYcrnnvS7F1HaFsboUR-35" value="" style="points=[];perimeter=orthogonalPerimeter;rounded=0;shadow=0;strokeWidth=1;" parent="zPYcrnnvS7F1HaFsboUR-16" vertex="1">
          <mxGeometry x="65" y="230" width="10" height="40" as="geometry" />
        </mxCell>
        <mxCell id="zPYcrnnvS7F1HaFsboUR-51" value="" style="points=[];perimeter=orthogonalPerimeter;rounded=0;shadow=0;strokeWidth=1;" parent="zPYcrnnvS7F1HaFsboUR-16" vertex="1">
          <mxGeometry x="60" y="610" width="10" height="110" as="geometry" />
        </mxCell>
        <mxCell id="Yyy4hosY1Lw3Lf85d5Uu-33" value="" style="points=[];perimeter=orthogonalPerimeter;rounded=0;shadow=0;strokeWidth=1;" vertex="1" parent="zPYcrnnvS7F1HaFsboUR-16">
          <mxGeometry x="65" y="670" width="10" height="40" as="geometry" />
        </mxCell>
        <mxCell id="Yyy4hosY1Lw3Lf85d5Uu-34" value="" style="edgeStyle=orthogonalEdgeStyle;rounded=0;orthogonalLoop=1;jettySize=auto;html=1;exitX=1;exitY=0.151;exitDx=0;exitDy=0;exitPerimeter=0;" edge="1" parent="zPYcrnnvS7F1HaFsboUR-16">
          <mxGeometry relative="1" as="geometry">
            <mxPoint x="70" y="660" as="sourcePoint" />
            <mxPoint x="80" y="691.31" as="targetPoint" />
            <Array as="points">
              <mxPoint x="70" y="661.31" />
              <mxPoint x="110" y="661.31" />
              <mxPoint x="110" y="691.31" />
            </Array>
          </mxGeometry>
        </mxCell>
        <mxCell id="zPYcrnnvS7F1HaFsboUR-19" value="OTPA UI Backend" style="shape=umlLifeline;perimeter=lifelinePerimeter;container=1;collapsible=0;recursiveResize=0;rounded=0;shadow=0;strokeWidth=1;" parent="1" vertex="1">
          <mxGeometry x="680" y="520" width="160" height="760" as="geometry" />
        </mxCell>
        <mxCell id="Yyy4hosY1Lw3Lf85d5Uu-3" value="" style="points=[];perimeter=orthogonalPerimeter;rounded=0;shadow=0;strokeWidth=1;" vertex="1" parent="zPYcrnnvS7F1HaFsboUR-19">
          <mxGeometry x="80" y="410" width="10" height="290" as="geometry" />
        </mxCell>
        <mxCell id="Yyy4hosY1Lw3Lf85d5Uu-15" value="Log Request Info" style="text;html=1;strokeColor=none;fillColor=none;align=center;verticalAlign=middle;whiteSpace=wrap;rounded=0;" vertex="1" parent="zPYcrnnvS7F1HaFsboUR-19">
          <mxGeometry x="85" y="288" width="124" height="30" as="geometry" />
        </mxCell>
        <mxCell id="Yyy4hosY1Lw3Lf85d5Uu-19" value="" style="points=[];perimeter=orthogonalPerimeter;rounded=0;shadow=0;strokeWidth=1;" vertex="1" parent="zPYcrnnvS7F1HaFsboUR-19">
          <mxGeometry x="85" y="535" width="10" height="40" as="geometry" />
        </mxCell>
        <mxCell id="zPYcrnnvS7F1HaFsboUR-39" value="Call Create announcement API" style="text;html=1;strokeColor=none;fillColor=none;align=center;verticalAlign=middle;whiteSpace=wrap;rounded=0;" parent="zPYcrnnvS7F1HaFsboUR-19" vertex="1">
          <mxGeometry x="85" y="358" width="173" height="29" as="geometry" />
        </mxCell>
        <mxCell id="zPYcrnnvS7F1HaFsboUR-21" value="" style="points=[];perimeter=orthogonalPerimeter;rounded=0;shadow=0;strokeWidth=1;" parent="zPYcrnnvS7F1HaFsboUR-19" vertex="1">
          <mxGeometry x="75" y="288" width="10" height="99" as="geometry" />
        </mxCell>
        <mxCell id="Yyy4hosY1Lw3Lf85d5Uu-24" value="" style="points=[];perimeter=orthogonalPerimeter;rounded=0;shadow=0;strokeWidth=1;" vertex="1" parent="zPYcrnnvS7F1HaFsboUR-19">
          <mxGeometry x="80" y="326" width="10" height="40" as="geometry" />
        </mxCell>
        <mxCell id="Yyy4hosY1Lw3Lf85d5Uu-25" value="" style="edgeStyle=orthogonalEdgeStyle;rounded=0;orthogonalLoop=1;jettySize=auto;html=1;exitX=1;exitY=0.151;exitDx=0;exitDy=0;exitPerimeter=0;" edge="1" parent="zPYcrnnvS7F1HaFsboUR-19">
          <mxGeometry relative="1" as="geometry">
            <mxPoint x="85" y="310" as="sourcePoint" />
            <mxPoint x="95" y="341.30999999999995" as="targetPoint" />
            <Array as="points">
              <mxPoint x="85" y="311.30999999999995" />
              <mxPoint x="125" y="311.30999999999995" />
              <mxPoint x="125" y="341.30999999999995" />
            </Array>
          </mxGeometry>
        </mxCell>
        <mxCell id="Yyy4hosY1Lw3Lf85d5Uu-26" value="" style="points=[];perimeter=orthogonalPerimeter;rounded=0;shadow=0;strokeWidth=1;" vertex="1" parent="zPYcrnnvS7F1HaFsboUR-19">
          <mxGeometry x="85" y="466" width="10" height="40" as="geometry" />
        </mxCell>
        <mxCell id="Yyy4hosY1Lw3Lf85d5Uu-27" value="" style="edgeStyle=orthogonalEdgeStyle;rounded=0;orthogonalLoop=1;jettySize=auto;html=1;exitX=1;exitY=0.151;exitDx=0;exitDy=0;exitPerimeter=0;" edge="1" parent="zPYcrnnvS7F1HaFsboUR-19">
          <mxGeometry relative="1" as="geometry">
            <mxPoint x="90" y="450" as="sourcePoint" />
            <mxPoint x="100" y="481.30999999999995" as="targetPoint" />
            <Array as="points">
              <mxPoint x="90" y="451.30999999999995" />
              <mxPoint x="130" y="451.30999999999995" />
              <mxPoint x="130" y="481.30999999999995" />
            </Array>
          </mxGeometry>
        </mxCell>
        <mxCell id="Yyy4hosY1Lw3Lf85d5Uu-28" value="" style="edgeStyle=orthogonalEdgeStyle;rounded=0;orthogonalLoop=1;jettySize=auto;html=1;exitX=1;exitY=0.151;exitDx=0;exitDy=0;exitPerimeter=0;" edge="1" parent="zPYcrnnvS7F1HaFsboUR-19">
          <mxGeometry relative="1" as="geometry">
            <mxPoint x="90" y="520" as="sourcePoint" />
            <mxPoint x="100" y="551.31" as="targetPoint" />
            <Array as="points">
              <mxPoint x="90" y="521.31" />
              <mxPoint x="130" y="521.31" />
              <mxPoint x="130" y="551.31" />
            </Array>
          </mxGeometry>
        </mxCell>
        <mxCell id="Yyy4hosY1Lw3Lf85d5Uu-29" value="" style="points=[];perimeter=orthogonalPerimeter;rounded=0;shadow=0;strokeWidth=1;" vertex="1" parent="zPYcrnnvS7F1HaFsboUR-19">
          <mxGeometry x="85" y="600" width="10" height="40" as="geometry" />
        </mxCell>
        <mxCell id="Yyy4hosY1Lw3Lf85d5Uu-30" value="" style="edgeStyle=orthogonalEdgeStyle;rounded=0;orthogonalLoop=1;jettySize=auto;html=1;exitX=1;exitY=0.151;exitDx=0;exitDy=0;exitPerimeter=0;" edge="1" parent="zPYcrnnvS7F1HaFsboUR-19">
          <mxGeometry relative="1" as="geometry">
            <mxPoint x="90" y="590" as="sourcePoint" />
            <mxPoint x="100" y="621.31" as="targetPoint" />
            <Array as="points">
              <mxPoint x="90" y="591.31" />
              <mxPoint x="130" y="591.31" />
              <mxPoint x="130" y="621.31" />
            </Array>
          </mxGeometry>
        </mxCell>
        <mxCell id="Yyy4hosY1Lw3Lf85d5Uu-35" value="Refresh UI" style="text;html=1;strokeColor=none;fillColor=none;align=center;verticalAlign=middle;whiteSpace=wrap;rounded=0;" vertex="1" parent="zPYcrnnvS7F1HaFsboUR-19">
          <mxGeometry x="-80" y="660" width="135" height="30" as="geometry" />
        </mxCell>
        <mxCell id="zPYcrnnvS7F1HaFsboUR-22" value="OTPA AE" style="shape=umlLifeline;perimeter=lifelinePerimeter;container=1;collapsible=0;recursiveResize=0;rounded=0;shadow=0;strokeWidth=1;" parent="1" vertex="1">
          <mxGeometry x="880" y="520" width="120" height="760" as="geometry" />
        </mxCell>
        <mxCell id="zPYcrnnvS7F1HaFsboUR-44" value="" style="points=[];perimeter=orthogonalPerimeter;rounded=0;shadow=0;strokeWidth=1;" parent="zPYcrnnvS7F1HaFsboUR-22" vertex="1">
          <mxGeometry x="55" y="360" width="10" height="150" as="geometry" />
        </mxCell>
        <mxCell id="zPYcrnnvS7F1HaFsboUR-47" value="Log Response Info" style="text;html=1;strokeColor=none;fillColor=none;align=center;verticalAlign=middle;whiteSpace=wrap;rounded=0;" parent="zPYcrnnvS7F1HaFsboUR-22" vertex="1">
          <mxGeometry x="-77" y="450" width="135" height="30" as="geometry" />
        </mxCell>
        <mxCell id="zPYcrnnvS7F1HaFsboUR-27" value="Input Annoucement Info" style="text;html=1;strokeColor=none;fillColor=none;align=center;verticalAlign=middle;whiteSpace=wrap;rounded=0;" parent="1" vertex="1">
          <mxGeometry x="415" y="670" width="105" height="30" as="geometry" />
        </mxCell>
        <mxCell id="zPYcrnnvS7F1HaFsboUR-28" value="" style="endArrow=classic;html=1;rounded=0;exitX=1.333;exitY=0.125;exitDx=0;exitDy=0;exitPerimeter=0;" parent="1" edge="1">
          <mxGeometry width="50" height="50" relative="1" as="geometry">
            <mxPoint x="390" y="720" as="sourcePoint" />
            <mxPoint x="579.5" y="720" as="targetPoint" />
            <Array as="points" />
          </mxGeometry>
        </mxCell>
        <mxCell id="zPYcrnnvS7F1HaFsboUR-36" value="Validate Annoucement Info" style="text;html=1;strokeColor=none;fillColor=none;align=center;verticalAlign=middle;whiteSpace=wrap;rounded=0;" parent="1" vertex="1">
          <mxGeometry x="590" y="690" width="105" height="30" as="geometry" />
        </mxCell>
        <mxCell id="zPYcrnnvS7F1HaFsboUR-40" value="" style="endArrow=classic;html=1;rounded=0;" parent="1" edge="1">
          <mxGeometry width="50" height="50" relative="1" as="geometry">
            <mxPoint x="770" y="900" as="sourcePoint" />
            <mxPoint x="940" y="900" as="targetPoint" />
            <Array as="points" />
          </mxGeometry>
        </mxCell>
        <mxCell id="zPYcrnnvS7F1HaFsboUR-48" value="" style="verticalAlign=bottom;endArrow=open;dashed=1;endSize=8;shadow=0;strokeWidth=1;" parent="1" edge="1" target="Yyy4hosY1Lw3Lf85d5Uu-3">
          <mxGeometry x="-0.1538" y="-10" relative="1" as="geometry">
            <mxPoint x="787" y="1003" as="targetPoint" />
            <mxPoint x="930" y="950" as="sourcePoint" />
            <mxPoint as="offset" />
          </mxGeometry>
        </mxCell>
        <mxCell id="zPYcrnnvS7F1HaFsboUR-52" value="&lt;h4 style=&quot;margin-left:.6in;text-align:justify;mso-list:l1 level4 lfo1&quot;&gt;&lt;span lang=&quot;EN-GB&quot;&gt;&lt;span style=&quot;font-variant-numeric: normal; font-variant-east-asian: normal; font-stretch: normal; line-height: normal;&quot;&gt;Create Announcement&lt;/span&gt;&lt;span style=&quot;font-variant-numeric: normal; font-variant-east-asian: normal; font-weight: normal; font-stretch: normal; font-size: 7pt; line-height: normal; font-family: &amp;quot;Times New Roman&amp;quot;;&quot;&gt;&amp;nbsp; &amp;nbsp; &amp;nbsp;&lt;/span&gt;&lt;/span&gt;&lt;span lang=&quot;EN-GB&quot;&gt;Sequence diagram&lt;/span&gt;&lt;/h4&gt;" style="text;html=1;align=center;verticalAlign=middle;resizable=0;points=[];autosize=1;strokeColor=none;fillColor=none;" parent="1" vertex="1">
          <mxGeometry x="107" y="416" width="322" height="58" as="geometry" />
        </mxCell>
        <mxCell id="Yyy4hosY1Lw3Lf85d5Uu-8" value="" style="edgeStyle=orthogonalEdgeStyle;rounded=0;orthogonalLoop=1;jettySize=auto;html=1;exitX=1;exitY=0.151;exitDx=0;exitDy=0;exitPerimeter=0;" edge="1" parent="1" source="zPYcrnnvS7F1HaFsboUR-34">
          <mxGeometry relative="1" as="geometry">
            <mxPoint x="600" y="730" as="sourcePoint" />
            <mxPoint x="600" y="760" as="targetPoint" />
            <Array as="points">
              <mxPoint x="590" y="730" />
              <mxPoint x="630" y="730" />
              <mxPoint x="630" y="760" />
            </Array>
          </mxGeometry>
        </mxCell>
        <mxCell id="zPYcrnnvS7F1HaFsboUR-38" value="" style="endArrow=classic;html=1;rounded=0;exitX=1.333;exitY=0.125;exitDx=0;exitDy=0;exitPerimeter=0;" parent="1" edge="1">
          <mxGeometry width="50" height="50" relative="1" as="geometry">
            <mxPoint x="591" y="818" as="sourcePoint" />
            <mxPoint x="760" y="818" as="targetPoint" />
            <Array as="points" />
          </mxGeometry>
        </mxCell>
        <mxCell id="zPYcrnnvS7F1HaFsboUR-37" value="Create Annoucement&amp;nbsp;" style="text;html=1;strokeColor=none;fillColor=none;align=center;verticalAlign=middle;whiteSpace=wrap;rounded=0;" parent="1" vertex="1">
          <mxGeometry x="610" y="778" width="125" height="30" as="geometry" />
        </mxCell>
        <mxCell id="Yyy4hosY1Lw3Lf85d5Uu-20" value="Save Data in DB" style="text;html=1;strokeColor=none;fillColor=none;align=center;verticalAlign=middle;whiteSpace=wrap;rounded=0;" vertex="1" parent="1">
          <mxGeometry x="780" y="1020" width="135" height="30" as="geometry" />
        </mxCell>
        <mxCell id="Yyy4hosY1Lw3Lf85d5Uu-31" value="Log result" style="text;html=1;strokeColor=none;fillColor=none;align=center;verticalAlign=middle;whiteSpace=wrap;rounded=0;" vertex="1" parent="1">
          <mxGeometry x="760" y="1090" width="135" height="30" as="geometry" />
        </mxCell>
        <mxCell id="Yyy4hosY1Lw3Lf85d5Uu-32" value="" style="verticalAlign=bottom;endArrow=open;dashed=1;endSize=8;shadow=0;strokeWidth=1;" edge="1" parent="1">
          <mxGeometry x="-0.1538" y="-10" relative="1" as="geometry">
            <mxPoint x="591" y="1170" as="targetPoint" />
            <mxPoint x="760" y="1170" as="sourcePoint" />
            <mxPoint as="offset" />
          </mxGeometry>
        </mxCell>
        <mxCell id="Yyy4hosY1Lw3Lf85d5Uu-41" value="Return Response" style="text;html=1;strokeColor=none;fillColor=none;align=center;verticalAlign=middle;whiteSpace=wrap;rounded=0;" vertex="1" parent="1">
          <mxGeometry x="780" y="926" width="135" height="30" as="geometry" />
        </mxCell>
        <mxCell id="Yyy4hosY1Lw3Lf85d5Uu-42" value="Return Response" style="text;html=1;strokeColor=none;fillColor=none;align=center;verticalAlign=middle;whiteSpace=wrap;rounded=0;" vertex="1" parent="1">
          <mxGeometry x="605" y="1140" width="135" height="30" as="geometry" />
        </mxCell>
      </root>
    </mxGraphModel>
  </diagram>
</mxfile>
